<?xml version="1.0" encoding="UTF-8"?>
<svg xmlns="http://www.w3.org/2000/svg" width="430" height="932" viewBox="0 0 430 932" role="img" aria-labelledby="titulo desc">
  <title id="titulo">Formulario Gastos Wireframe</title>
  <desc id="desc">Wireframe low-fidelity mobile-first para formulario de registro de gastos y captura de ticket</desc>
  <rect x="0" y="0" width="430" height="932" fill="#f5f5f5"/>
  <rect x="0" y="0" width="430" height="72" fill="#d9d9d9" stroke="#9e9e9e"/>
  <text x="18" y="45" font-family="Arial, sans-serif" font-size="19" fill="#4a4a4a">Registrar gasto</text>

  <rect x="18" y="92" width="394" height="740" fill="#efefef" stroke="#a6a6a6"/>
  <text x="34" y="122" font-family="Arial, sans-serif" font-size="15" fill="#4a4a4a">Datos del gasto</text>
  <rect x="34" y="138" width="362" height="44" fill="#ffffff" stroke="#9c9c9c"/>
  <text x="48" y="166" font-family="Arial, sans-serif" font-size="13" fill="#666666">Categoria</text>
  <rect x="34" y="192" width="362" height="44" fill="#ffffff" stroke="#9c9c9c"/>
  <text x="48" y="220" font-family="Arial, sans-serif" font-size="13" fill="#666666">Fecha</text>
  <rect x="34" y="246" width="362" height="80" fill="#ffffff" stroke="#9c9c9c"/>
  <text x="48" y="276" font-family="Arial, sans-serif" font-size="13" fill="#666666">Descripcion (Lorem ipsum...)</text>

  <text x="34" y="356" font-family="Arial, sans-serif" font-size="15" fill="#4a4a4a">Ticket respaldatorio</text>
  <rect x="34" y="372" width="362" height="170" fill="#e1e1e1" stroke="#999999" stroke-dasharray="8,6"/>
  <text x="112" y="462" font-family="Arial, sans-serif" font-size="14" fill="#666666">Placeholder captura ticket</text>

  <rect x="34" y="556" width="362" height="44" fill="#d8d8d8" stroke="#949494"/>
  <text x="122" y="584" font-family="Arial, sans-serif" font-size="14" fill="#565656">Comprimir archivo</text>
  <rect x="34" y="610" width="362" height="72" fill="#e5e5e5" stroke="#9d9d9d"/>
  <text x="48" y="640" font-family="Arial, sans-serif" font-size="13" fill="#606060">Peso original: --- KB</text>
  <text x="48" y="664" font-family="Arial, sans-serif" font-size="13" fill="#606060">Peso final: &lt; 500 KB</text>

  <rect x="34" y="700" width="174" height="52" fill="#d6d6d6" stroke="#949494"/>
  <text x="94" y="732" font-family="Arial, sans-serif" font-size="14" fill="#555555">Cancelar</text>
  <rect x="222" y="700" width="174" height="52" fill="#cfcfcf" stroke="#8e8e8e"/>
  <text x="272" y="732" font-family="Arial, sans-serif" font-size="14" fill="#555555">Guardar</text>

  <rect x="0" y="844" width="430" height="88" fill="#dedede" stroke="#a0a0a0"/>
  <text x="52" y="896" font-family="Arial, sans-serif" font-size="13" fill="#555555">Inicio</text>
  <text x="184" y="896" font-family="Arial, sans-serif" font-size="13" fill="#555555">Ruta</text>
  <text x="304" y="896" font-family="Arial, sans-serif" font-size="13" fill="#555555">Perfil</text>
</svg>
