<?xml version="1.0" encoding="UTF-8"?>
<svg xmlns="http://www.w3.org/2000/svg" width="430" height="932" viewBox="0 0 430 932" role="img" aria-labelledby="titulo desc">
  <title id="titulo">Modulo RRHH Wireframe</title>
  <desc id="desc">Wireframe low-fidelity mobile-first para lista de recibos y modal de firma digital canvas</desc>
  <rect x="0" y="0" width="430" height="932" fill="#f5f5f5"/>
  <rect x="0" y="0" width="430" height="72" fill="#d9d9d9" stroke="#9e9e9e"/>
  <text x="18" y="45" font-family="Arial, sans-serif" font-size="19" fill="#4a4a4a">Recibos</text>

  <rect x="18" y="92" width="394" height="360" fill="#efefef" stroke="#a6a6a6"/>
  <text x="34" y="122" font-family="Arial, sans-serif" font-size="15" fill="#4a4a4a">Lista de recibos</text>
  <rect x="34" y="138" width="362" height="64" fill="#e3e3e3" stroke="#999999"/>
  <text x="48" y="166" font-family="Arial, sans-serif" font-size="13" fill="#5f5f5f">Periodo: Abril 2026</text>
  <text x="48" y="188" font-family="Arial, sans-serif" font-size="13" fill="#5f5f5f">Estado: Pendiente de firma</text>
  <rect x="34" y="212" width="362" height="64" fill="#e3e3e3" stroke="#999999"/>
  <text x="48" y="240" font-family="Arial, sans-serif" font-size="13" fill="#5f5f5f">Periodo: Marzo 2026</text>
  <text x="48" y="262" font-family="Arial, sans-serif" font-size="13" fill="#5f5f5f">Estado: Firmado</text>
  <rect x="34" y="286" width="362" height="64" fill="#e3e3e3" stroke="#999999"/>
  <text x="48" y="314" font-family="Arial, sans-serif" font-size="13" fill="#5f5f5f">Periodo: Febrero 2026</text>
  <text x="48" y="336" font-family="Arial, sans-serif" font-size="13" fill="#5f5f5f">Estado: Firmado</text>

  <rect x="18" y="468" width="394" height="364" fill="#efefef" stroke="#a6a6a6"/>
  <text x="34" y="498" font-family="Arial, sans-serif" font-size="15" fill="#4a4a4a">Modal firma digital</text>
  <rect x="34" y="514" width="362" height="220" fill="#e1e1e1" stroke="#989898" stroke-dasharray="8,6"/>
  <text x="136" y="628" font-family="Arial, sans-serif" font-size="14" fill="#656565">Placeholder canvas firma</text>
  <rect x="34" y="744" width="174" height="52" fill="#d6d6d6" stroke="#949494"/>
  <text x="86" y="776" font-family="Arial, sans-serif" font-size="14" fill="#555555">Limpiar</text>
  <rect x="222" y="744" width="174" height="52" fill="#cfcfcf" stroke="#8e8e8e"/>
  <text x="278" y="776" font-family="Arial, sans-serif" font-size="14" fill="#555555">Firmar</text>

  <rect x="0" y="844" width="430" height="88" fill="#dedede" stroke="#a0a0a0"/>
  <text x="52" y="896" font-family="Arial, sans-serif" font-size="13" fill="#555555">Inicio</text>
  <text x="184" y="896" font-family="Arial, sans-serif" font-size="13" fill="#555555">Ruta</text>
  <text x="304" y="896" font-family="Arial, sans-serif" font-size="13" fill="#555555">Perfil</text>
</svg>
