<?xml version="1.0" encoding="UTF-8"?>
<svg xmlns="http://www.w3.org/2000/svg" width="430" height="932" viewBox="0 0 430 932" role="img" aria-labelledby="titulo desc">
  <title id="titulo">Perfil Documentos Wireframe</title>
  <desc id="desc">Wireframe low-fidelity mobile-first para perfil y documentos con semaforos de vencimiento</desc>
  <rect x="0" y="0" width="430" height="932" fill="#f5f5f5"/>
  <rect x="0" y="0" width="430" height="72" fill="#d9d9d9" stroke="#9e9e9e"/>
  <text x="18" y="45" font-family="Arial, sans-serif" font-size="19" fill="#4a4a4a">Perfil y Documentos</text>

  <rect x="18" y="92" width="394" height="174" fill="#efefef" stroke="#a5a5a5"/>
  <rect x="34" y="112" width="70" height="70" fill="#d9d9d9" stroke="#9a9a9a"/>
  <text x="52" y="154" font-family="Arial, sans-serif" font-size="13" fill="#666666">IMG</text>
  <text x="118" y="134" font-family="Arial, sans-serif" font-size="14" fill="#555555">Nombre del chofer</text>
  <text x="118" y="158" font-family="Arial, sans-serif" font-size="13" fill="#666666">Rol: Chofer</text>
  <rect x="34" y="194" width="362" height="52" fill="#d6d6d6" stroke="#949494"/>
  <text x="132" y="226" font-family="Arial, sans-serif" font-size="14" fill="#565656">Actualizar perfil</text>

  <rect x="18" y="280" width="394" height="552" fill="#efefef" stroke="#a5a5a5"/>
  <text x="34" y="310" font-family="Arial, sans-serif" font-size="15" fill="#4a4a4a">Documentos del chofer</text>
  <rect x="34" y="326" width="362" height="70" fill="#e4e4e4" stroke="#9b9b9b"/>
  <text x="48" y="354" font-family="Arial, sans-serif" font-size="13" fill="#5d5d5d">Licencia profesional</text>
  <text x="48" y="376" font-family="Arial, sans-serif" font-size="13" fill="#5d5d5d">Semaforo: [Verde]</text>
  <rect x="34" y="406" width="362" height="70" fill="#e4e4e4" stroke="#9b9b9b"/>
  <text x="48" y="434" font-family="Arial, sans-serif" font-size="13" fill="#5d5d5d">Apto medico</text>
  <text x="48" y="456" font-family="Arial, sans-serif" font-size="13" fill="#5d5d5d">Semaforo: [Amarillo]</text>
  <rect x="34" y="486" width="362" height="70" fill="#e4e4e4" stroke="#9b9b9b"/>
  <text x="48" y="514" font-family="Arial, sans-serif" font-size="13" fill="#5d5d5d">Seguro ART</text>
  <text x="48" y="536" font-family="Arial, sans-serif" font-size="13" fill="#5d5d5d">Semaforo: [Rojo]</text>
  <rect x="34" y="570" width="362" height="238" fill="#e1e1e1" stroke="#9a9a9a" stroke-dasharray="8,6"/>
  <text x="110" y="694" font-family="Arial, sans-serif" font-size="14" fill="#666666">Placeholder acciones ver/actualizar/descargar</text>

  <rect x="0" y="844" width="430" height="88" fill="#dedede" stroke="#a0a0a0"/>
  <text x="52" y="896" font-family="Arial, sans-serif" font-size="13" fill="#555555">Inicio</text>
  <text x="184" y="896" font-family="Arial, sans-serif" font-size="13" fill="#555555">Ruta</text>
  <text x="304" y="896" font-family="Arial, sans-serif" font-size="13" fill="#555555">Perfil</text>
</svg>
