<?xml version="1.0" encoding="UTF-8"?>
<svg xmlns="http://www.w3.org/2000/svg" width="430" height="932" viewBox="0 0 430 932" role="img" aria-labelledby="titulo desc">
  <title id="titulo">Viaje Estados Wireframe</title>
  <desc id="desc">Wireframe low-fidelity mobile-first para flujo de estados de viaje</desc>
  <rect x="0" y="0" width="430" height="932" fill="#f5f5f5"/>
  <rect x="0" y="0" width="430" height="74" fill="#d9d9d9" stroke="#9e9e9e"/>
  <text x="18" y="46" font-family="Arial, sans-serif" font-size="19" fill="#4a4a4a">Ruta en Curso</text>

  <rect x="18" y="92" width="394" height="172" fill="#efefef" stroke="#a5a5a5"/>
  <text x="34" y="120" font-family="Arial, sans-serif" font-size="15" fill="#4a4a4a">Viaje VJ-102 | Planta -> Cliente</text>
  <rect x="34" y="136" width="362" height="112" fill="#e2e2e2" stroke="#9d9d9d" stroke-dasharray="8,6"/>
  <text x="122" y="196" font-family="Arial, sans-serif" font-size="14" fill="#686868">Placeholder resumen del viaje</text>

  <rect x="18" y="278" width="394" height="510" fill="#efefef" stroke="#a5a5a5"/>
  <text x="34" y="306" font-family="Arial, sans-serif" font-size="15" fill="#4a4a4a">Flujo guiado de estados</text>
  <rect x="34" y="322" width="362" height="52" fill="#dcdcdc" stroke="#9a9a9a"/>
  <text x="50" y="354" font-family="Arial, sans-serif" font-size="14" fill="#565656">1. Aceptar viaje</text>
  <rect x="34" y="384" width="362" height="52" fill="#dfdfdf" stroke="#9a9a9a"/>
  <text x="50" y="416" font-family="Arial, sans-serif" font-size="14" fill="#565656">2. Llegada a balanza</text>
  <rect x="34" y="446" width="362" height="52" fill="#dfdfdf" stroke="#9a9a9a"/>
  <text x="50" y="478" font-family="Arial, sans-serif" font-size="14" fill="#565656">3. Inicio de carga</text>
  <rect x="34" y="508" width="362" height="52" fill="#dfdfdf" stroke="#9a9a9a"/>
  <text x="50" y="540" font-family="Arial, sans-serif" font-size="14" fill="#565656">4. Fin de carga</text>
  <rect x="34" y="570" width="362" height="52" fill="#dfdfdf" stroke="#9a9a9a"/>
  <text x="50" y="602" font-family="Arial, sans-serif" font-size="14" fill="#565656">5. En ruta</text>
  <rect x="34" y="632" width="362" height="52" fill="#dfdfdf" stroke="#9a9a9a"/>
  <text x="50" y="664" font-family="Arial, sans-serif" font-size="14" fill="#565656">6. Llegada / Entrega</text>
  <rect x="34" y="704" width="362" height="64" fill="#cccccc" stroke="#8f8f8f"/>
  <text x="150" y="742" font-family="Arial, sans-serif" font-size="15" fill="#4a4a4a">Avanzar estado</text>

  <rect x="0" y="844" width="430" height="88" fill="#dedede" stroke="#a0a0a0"/>
  <text x="52" y="896" font-family="Arial, sans-serif" font-size="13" fill="#555555">Inicio</text>
  <text x="184" y="896" font-family="Arial, sans-serif" font-size="13" fill="#555555">Ruta</text>
  <text x="304" y="896" font-family="Arial, sans-serif" font-size="13" fill="#555555">Perfil</text>
</svg>
