<?xml version="1.0" encoding="UTF-8"?>
<svg xmlns="http://www.w3.org/2000/svg" width="1440" height="900" viewBox="0 0 1440 900" role="img">
  <rect width="1440" height="900" fill="#f5f5f5"/>
  <text x="24" y="40" font-family="Arial" font-size="24" fill="#4a4a4a">Dashboard Monitor de Operaciones</text>
  <rect x="24" y="58" width="1392" height="66" fill="#ededed" stroke="#b3b3b3"/>
  <rect x="40" y="74" width="240" height="34" fill="#ffffff" stroke="#9e9e9e"/>
  <rect x="292" y="74" width="200" height="34" fill="#ffffff" stroke="#9e9e9e"/>
  <rect x="504" y="74" width="200" height="34" fill="#ffffff" stroke="#9e9e9e"/>
  <rect x="1200" y="70" width="196" height="40" fill="#cdcdcd" stroke="#8f8f8f"/>
  <rect x="24" y="138" width="690" height="388" fill="#efefef" stroke="#a0a0a0"/>
  <text x="46" y="168" font-family="Arial" font-size="16" fill="#4a4a4a">Zona 1 + mapa en vivo</text>
  <rect x="42" y="182" width="654" height="326" fill="#e1e1e1" stroke="#999" stroke-dasharray="8,6"/>
  <rect x="726" y="138" width="690" height="388" fill="#efefef" stroke="#a0a0a0"/>
  <text x="748" y="168" font-family="Arial" font-size="16" fill="#4a4a4a">Zona 2 + mapa en vivo</text>
  <rect x="744" y="182" width="654" height="326" fill="#e1e1e1" stroke="#999" stroke-dasharray="8,6"/>
  <rect x="24" y="540" width="1392" height="160" fill="#efefef" stroke="#a0a0a0"/>
  <text x="46" y="570" font-family="Arial" font-size="16" fill="#4a4a4a">Listado de viajes visibles</text>
  <rect x="44" y="584" width="1356" height="48" fill="#e5e5e5" stroke="#9a9a9a"/>
  <rect x="44" y="640" width="1356" height="48" fill="#e5e5e5" stroke="#9a9a9a"/>
  <rect x="24" y="714" width="1392" height="162" fill="#e9e9e9" stroke="#a0a0a0"/>
  <text x="46" y="744" font-family="Arial" font-size="16" fill="#4a4a4a">Alertas en tiempo real (activa/resuelta)</text>
  <rect x="44" y="760" width="432" height="96" fill="#dfdfdf" stroke="#9a9a9a"/>
  <rect x="504" y="760" width="432" height="96" fill="#dfdfdf" stroke="#9a9a9a"/>
  <rect x="964" y="760" width="432" height="96" fill="#dfdfdf" stroke="#9a9a9a"/>
</svg>
