<?xml version="1.0" encoding="UTF-8"?>
<svg xmlns="http://www.w3.org/2000/svg" width="1440" height="900" viewBox="0 0 1440 900" role="img" aria-labelledby="titulo desc">
  <title id="titulo">Modulo Alertas Wireframe</title>
  <desc id="desc">Wireframe low-fidelity monocromo para tabla de alertas operativas</desc>
  <rect x="0" y="0" width="1440" height="900" fill="#f5f5f5"/>
  <rect x="0" y="0" width="1440" height="72" fill="#d9d9d9" stroke="#9e9e9e"/>
  <text x="24" y="45" font-family="Arial, sans-serif" font-size="22" fill="#4a4a4a">Modulo de Alertas Operativas</text>

  <rect x="24" y="94" width="1392" height="70" fill="#ededed" stroke="#b2b2b2"/>
  <rect x="40" y="112" width="260" height="34" fill="#ffffff" stroke="#9e9e9e"/>
  <text x="52" y="134" font-family="Arial, sans-serif" font-size="13" fill="#676767">Buscar alerta</text>
  <rect x="314" y="112" width="220" height="34" fill="#ffffff" stroke="#9e9e9e"/>
  <text x="326" y="134" font-family="Arial, sans-serif" font-size="13" fill="#676767">Filtro severidad</text>
  <rect x="548" y="112" width="220" height="34" fill="#ffffff" stroke="#9e9e9e"/>
  <text x="560" y="134" font-family="Arial, sans-serif" font-size="13" fill="#676767">Filtro estado</text>

  <rect x="24" y="182" width="1392" height="694" fill="#efefef" stroke="#a5a5a5"/>
  <rect x="40" y="204" width="1360" height="48" fill="#dddddd" stroke="#999999"/>
  <text x="56" y="234" font-family="Arial, sans-serif" font-size="14" fill="#4f4f4f">ID | Hora | Origen | Severidad | Descripcion | Viaje | Estado | Accion</text>

  <rect x="40" y="264" width="1360" height="58" fill="#e7e7e7" stroke="#9f9f9f"/>
  <text x="56" y="298" font-family="Arial, sans-serif" font-size="13" fill="#575757">ALT-001 | 08:21 | Mobile | Alta | Incidente reportado en ruta... | VJ-101 | Activa | Resolver</text>
  <rect x="40" y="332" width="1360" height="58" fill="#e7e7e7" stroke="#9f9f9f"/>
  <text x="56" y="366" font-family="Arial, sans-serif" font-size="13" fill="#575757">ALT-002 | 09:10 | Admin | Media | Demora de carga en planta... | VJ-088 | Activa | Resolver</text>
  <rect x="40" y="400" width="1360" height="58" fill="#e7e7e7" stroke="#9f9f9f"/>
  <text x="56" y="434" font-family="Arial, sans-serif" font-size="13" fill="#575757">ALT-003 | 10:54 | Mobile | Alta | Desvio no planificado... | VJ-063 | Resuelta | Ver</text>

  <rect x="40" y="478" width="1360" height="378" fill="#e2e2e2" stroke="#9e9e9e" stroke-dasharray="8,6"/>
  <text x="604" y="676" font-family="Arial, sans-serif" font-size="16" fill="#6c6c6c">Placeholder tabla extendida / paginacion</text>
</svg>
