<?xml version="1.0" encoding="UTF-8"?>
<svg xmlns="http://www.w3.org/2000/svg" width="1440" height="900" viewBox="0 0 1440 900" role="img">
  <rect width="1440" height="900" fill="#f5f5f5"/>
  <text x="24" y="40" font-family="Arial" font-size="24" fill="#4a4a4a">RRHH / Facturas de Choferes</text>
  <rect x="24" y="58" width="1392" height="62" fill="#ededed" stroke="#b0b0b0"/>
  <rect x="40" y="70" width="220" height="38" fill="#fff" stroke="#9e9e9e"/>
  <rect x="1220" y="70" width="176" height="38" fill="#cecece" stroke="#8f8f8f"/>
  <rect x="24" y="134" width="1392" height="120" fill="#efefef" stroke="#a2a2a2"/>
  <rect x="44" y="154" width="324" height="80" fill="#e1e1e1" stroke="#999"/>
  <rect x="384" y="154" width="324" height="80" fill="#e1e1e1" stroke="#999"/>
  <rect x="724" y="154" width="324" height="80" fill="#e1e1e1" stroke="#999"/>
  <rect x="1064" y="154" width="324" height="80" fill="#e1e1e1" stroke="#999"/>
  <rect x="24" y="270" width="1392" height="606" fill="#efefef" stroke="#a2a2a2"/>
  <rect x="44" y="294" width="1360" height="48" fill="#dddddd" stroke="#999"/>
  <text x="58" y="324" font-family="Arial" font-size="14" fill="#555">ID | Chofer | Periodo | Monto | Adjunto | Estado | Accion</text>
  <rect x="44" y="354" width="1360" height="56" fill="#e7e7e7" stroke="#9f9f9f"/>
  <rect x="44" y="420" width="1360" height="56" fill="#e7e7e7" stroke="#9f9f9f"/>
  <rect x="44" y="486" width="1360" height="390" fill="#e2e2e2" stroke="#9e9e9e" stroke-dasharray="8,6"/>
</svg>
