<?xml version="1.0" encoding="UTF-8"?>
<svg xmlns="http://www.w3.org/2000/svg" width="1440" height="900" viewBox="0 0 1440 900" role="img" aria-labelledby="titulo desc">
  <title id="titulo">Seguridad RBAC Wireframe</title>
  <desc id="desc">Wireframe low-fidelity monocromo para seguridad roles permisos y logs de auditoria</desc>
  <rect x="0" y="0" width="1440" height="900" fill="#f5f5f5"/>
  <rect x="0" y="0" width="1440" height="72" fill="#d9d9d9" stroke="#9e9e9e"/>
  <text x="24" y="45" font-family="Arial, sans-serif" font-size="22" fill="#4a4a4a">Seguridad y Auditoria (RBAC)</text>

  <rect x="24" y="94" width="686" height="782" fill="#efefef" stroke="#a2a2a2"/>
  <text x="44" y="126" font-family="Arial, sans-serif" font-size="18" fill="#4a4a4a">Usuarios y roles</text>
  <rect x="44" y="146" width="646" height="48" fill="#dddddd" stroke="#9a9a9a"/>
  <text x="58" y="176" font-family="Arial, sans-serif" font-size="14" fill="#555555">Usuario | Email | Rol | Estado | Ultimo acceso | Accion</text>
  <rect x="44" y="204" width="646" height="58" fill="#e7e7e7" stroke="#9f9f9f"/>
  <text x="58" y="238" font-family="Arial, sans-serif" font-size="13" fill="#575757">Ana Perez | ana@... | Supervisor | Activo | 2026-04-30 08:40 | Editar</text>
  <rect x="44" y="272" width="646" height="58" fill="#e7e7e7" stroke="#9f9f9f"/>
  <text x="58" y="306" font-family="Arial, sans-serif" font-size="13" fill="#575757">Juan Ruiz | juan@... | Operador | Activo | 2026-04-30 09:10 | Editar</text>
  <rect x="44" y="340" width="646" height="238" fill="#e1e1e1" stroke="#9d9d9d" stroke-dasharray="8,6"/>
  <text x="210" y="466" font-family="Arial, sans-serif" font-size="15" fill="#676767">Placeholder mas filas / alta de usuario</text>
  <rect x="44" y="594" width="646" height="262" fill="#e1e1e1" stroke="#9d9d9d" stroke-dasharray="8,6"/>
  <text x="224" y="730" font-family="Arial, sans-serif" font-size="15" fill="#676767">Placeholder matriz rol-permisos</text>

  <rect x="730" y="94" width="686" height="782" fill="#efefef" stroke="#a2a2a2"/>
  <text x="750" y="126" font-family="Arial, sans-serif" font-size="18" fill="#4a4a4a">Logs de auditoria</text>
  <rect x="750" y="146" width="646" height="48" fill="#dddddd" stroke="#9a9a9a"/>
  <text x="764" y="176" font-family="Arial, sans-serif" font-size="14" fill="#555555">Fecha | Usuario | IP | Accion | Modulo</text>
  <rect x="750" y="204" width="646" height="58" fill="#e7e7e7" stroke="#9f9f9f"/>
  <text x="764" y="238" font-family="Arial, sans-serif" font-size="13" fill="#575757">2026-04-30 10:02 | admin@... | 190.12... | Cambio rol | Seguridad</text>
  <rect x="750" y="272" width="646" height="58" fill="#e7e7e7" stroke="#9f9f9f"/>
  <text x="764" y="306" font-family="Arial, sans-serif" font-size="13" fill="#575757">2026-04-30 10:07 | sup@... | 181.22... | Alta viaje VJ-114 | Viajes</text>
  <rect x="750" y="340" width="646" height="516" fill="#e1e1e1" stroke="#9d9d9d" stroke-dasharray="8,6"/>
  <text x="956" y="608" font-family="Arial, sans-serif" font-size="15" fill="#676767">Placeholder historial completo</text>
</svg>
