<?xml version="1.0" encoding="UTF-8"?>
<svg xmlns="http://www.w3.org/2000/svg" width="1440" height="900" viewBox="0 0 1440 900" role="img" aria-labelledby="titulo desc">
  <title id="titulo">Tareas Programadas Wireframe</title>
  <desc id="desc">Wireframe low-fidelity monocromo para configuracion de vencimientos mensuales trimestrales y anuales</desc>
  <rect x="0" y="0" width="1440" height="900" fill="#f5f5f5"/>
  <rect x="0" y="0" width="1440" height="72" fill="#d9d9d9" stroke="#9e9e9e"/>
  <text x="24" y="45" font-family="Arial, sans-serif" font-size="22" fill="#4a4a4a">Tareas Programadas / Vencimientos</text>

  <rect x="24" y="94" width="920" height="782" fill="#efefef" stroke="#a4a4a4"/>
  <text x="44" y="126" font-family="Arial, sans-serif" font-size="18" fill="#4a4a4a">Reglas configuradas</text>
  <rect x="44" y="146" width="880" height="52" fill="#dddddd" stroke="#9a9a9a"/>
  <text x="58" y="178" font-family="Arial, sans-serif" font-size="14" fill="#555555">Tipo doc | Frecuencia | Dias aviso | Estado | Ultima ejecucion | Accion</text>
  <rect x="44" y="208" width="880" height="58" fill="#e6e6e6" stroke="#9e9e9e"/>
  <text x="58" y="242" font-family="Arial, sans-serif" font-size="13" fill="#5a5a5a">Seguro vehiculo | Mensual | 15 | Activo | 2026-04-01 | Editar</text>
  <rect x="44" y="276" width="880" height="58" fill="#e6e6e6" stroke="#9e9e9e"/>
  <text x="58" y="310" font-family="Arial, sans-serif" font-size="13" fill="#5a5a5a">Licencia chofer | Trimestral | 30 | Activo | 2026-03-20 | Editar</text>
  <rect x="44" y="344" width="880" height="58" fill="#e6e6e6" stroke="#9e9e9e"/>
  <text x="58" y="378" font-family="Arial, sans-serif" font-size="13" fill="#5a5a5a">Permiso habilitante | Anual | 45 | Inactivo | 2026-01-15 | Editar</text>
  <rect x="44" y="420" width="880" height="438" fill="#e2e2e2" stroke="#9e9e9e" stroke-dasharray="8,6"/>
  <text x="336" y="646" font-family="Arial, sans-serif" font-size="16" fill="#6a6a6a">Placeholder tabla completa y calendario de ejecuciones</text>

  <rect x="964" y="94" width="452" height="782" fill="#efefef" stroke="#a4a4a4"/>
  <text x="984" y="126" font-family="Arial, sans-serif" font-size="18" fill="#4a4a4a">Nueva regla</text>
  <rect x="984" y="150" width="412" height="44" fill="#ffffff" stroke="#9e9e9e"/>
  <text x="998" y="177" font-family="Arial, sans-serif" font-size="13" fill="#666666">Tipo de documento</text>
  <rect x="984" y="204" width="412" height="44" fill="#ffffff" stroke="#9e9e9e"/>
  <text x="998" y="231" font-family="Arial, sans-serif" font-size="13" fill="#666666">Frecuencia</text>
  <rect x="984" y="258" width="412" height="44" fill="#ffffff" stroke="#9e9e9e"/>
  <text x="998" y="285" font-family="Arial, sans-serif" font-size="13" fill="#666666">Dias de anticipacion</text>
  <rect x="984" y="312" width="412" height="44" fill="#ffffff" stroke="#9e9e9e"/>
  <text x="998" y="339" font-family="Arial, sans-serif" font-size="13" fill="#666666">Canal de notificacion</text>
  <rect x="984" y="376" width="412" height="44" fill="#cfcfcf" stroke="#8f8f8f"/>
  <text x="1140" y="403" font-family="Arial, sans-serif" font-size="14" fill="#4a4a4a">Guardar</text>
</svg>
